<mxfile host="app.diagrams.net" modified="2020-09-11T13:50:09.082Z" agent="5.0 (Windows NT 10.0; Win64; x64) AppleWebKit/537.36 (KHTML, like Gecko) Chrome/85.0.4183.83 Safari/537.36" etag="TssI6mflkekmA0UxwBgw" version="13.6.6" type="github">
  <diagram id="YuahZfivbGOBrcSY0SGU" name="Page-1">
    <mxGraphModel dx="1038" dy="580" grid="1" gridSize="10" guides="1" tooltips="1" connect="1" arrows="1" fold="1" page="1" pageScale="1" pageWidth="850" pageHeight="1100" math="0" shadow="0">
      <root>
        <mxCell id="0" />
        <mxCell id="1" parent="0" />
        <mxCell id="0NxykgusLA0ORZlhp-9H-7" style="edgeStyle=orthogonalEdgeStyle;rounded=0;orthogonalLoop=1;jettySize=auto;html=1;exitX=0.5;exitY=1;exitDx=0;exitDy=0;entryX=0.5;entryY=0;entryDx=0;entryDy=0;" edge="1" parent="1" source="0NxykgusLA0ORZlhp-9H-1" target="0NxykgusLA0ORZlhp-9H-2">
          <mxGeometry relative="1" as="geometry" />
        </mxCell>
        <mxCell id="0NxykgusLA0ORZlhp-9H-1" value="start" style="ellipse;whiteSpace=wrap;html=1;" vertex="1" parent="1">
          <mxGeometry x="365" y="90" width="120" height="80" as="geometry" />
        </mxCell>
        <mxCell id="0NxykgusLA0ORZlhp-9H-8" style="edgeStyle=orthogonalEdgeStyle;rounded=0;orthogonalLoop=1;jettySize=auto;html=1;exitX=0.5;exitY=1;exitDx=0;exitDy=0;entryX=0.5;entryY=0;entryDx=0;entryDy=0;" edge="1" parent="1" source="0NxykgusLA0ORZlhp-9H-2" target="0NxykgusLA0ORZlhp-9H-3">
          <mxGeometry relative="1" as="geometry" />
        </mxCell>
        <mxCell id="0NxykgusLA0ORZlhp-9H-14" style="edgeStyle=orthogonalEdgeStyle;rounded=0;orthogonalLoop=1;jettySize=auto;html=1;exitX=0;exitY=0.5;exitDx=0;exitDy=0;entryX=1;entryY=0.5;entryDx=0;entryDy=0;" edge="1" parent="1" source="0NxykgusLA0ORZlhp-9H-2" target="0NxykgusLA0ORZlhp-9H-5">
          <mxGeometry relative="1" as="geometry" />
        </mxCell>
        <mxCell id="0NxykgusLA0ORZlhp-9H-2" value="for loop" style="rhombus;whiteSpace=wrap;html=1;" vertex="1" parent="1">
          <mxGeometry x="385" y="210" width="80" height="80" as="geometry" />
        </mxCell>
        <mxCell id="0NxykgusLA0ORZlhp-9H-9" style="edgeStyle=orthogonalEdgeStyle;rounded=0;orthogonalLoop=1;jettySize=auto;html=1;exitX=0.5;exitY=1;exitDx=0;exitDy=0;entryX=0.5;entryY=0;entryDx=0;entryDy=0;" edge="1" parent="1" source="0NxykgusLA0ORZlhp-9H-3" target="0NxykgusLA0ORZlhp-9H-4">
          <mxGeometry relative="1" as="geometry" />
        </mxCell>
        <mxCell id="0NxykgusLA0ORZlhp-9H-3" value="driveForward()" style="rounded=0;whiteSpace=wrap;html=1;" vertex="1" parent="1">
          <mxGeometry x="365" y="320" width="120" height="60" as="geometry" />
        </mxCell>
        <mxCell id="0NxykgusLA0ORZlhp-9H-13" style="edgeStyle=orthogonalEdgeStyle;rounded=0;orthogonalLoop=1;jettySize=auto;html=1;exitX=0.5;exitY=1;exitDx=0;exitDy=0;entryX=1;entryY=0.5;entryDx=0;entryDy=0;" edge="1" parent="1" source="0NxykgusLA0ORZlhp-9H-4" target="0NxykgusLA0ORZlhp-9H-2">
          <mxGeometry relative="1" as="geometry">
            <mxPoint x="580" y="350" as="targetPoint" />
            <Array as="points">
              <mxPoint x="425" y="500" />
              <mxPoint x="580" y="500" />
              <mxPoint x="580" y="250" />
            </Array>
          </mxGeometry>
        </mxCell>
        <mxCell id="0NxykgusLA0ORZlhp-9H-4" value="driveBackwards()" style="rounded=0;whiteSpace=wrap;html=1;" vertex="1" parent="1">
          <mxGeometry x="365" y="420" width="120" height="60" as="geometry" />
        </mxCell>
        <mxCell id="0NxykgusLA0ORZlhp-9H-5" value="" style="ellipse;whiteSpace=wrap;html=1;" vertex="1" parent="1">
          <mxGeometry x="150" y="210" width="120" height="80" as="geometry" />
        </mxCell>
        <mxCell id="0NxykgusLA0ORZlhp-9H-15" value="i = 5" style="text;html=1;strokeColor=none;fillColor=none;align=center;verticalAlign=middle;whiteSpace=wrap;rounded=0;" vertex="1" parent="1">
          <mxGeometry x="310" y="220" width="40" height="20" as="geometry" />
        </mxCell>
        <mxCell id="0NxykgusLA0ORZlhp-9H-16" value="i++" style="text;html=1;strokeColor=none;fillColor=none;align=center;verticalAlign=middle;whiteSpace=wrap;rounded=0;" vertex="1" parent="1">
          <mxGeometry x="510" y="470" width="40" height="20" as="geometry" />
        </mxCell>
      </root>
    </mxGraphModel>
  </diagram>
</mxfile>
